<svg width="18" height="18" viewBox="0 0 18 18" fill="none" xmlns="http://www.w3.org/2000/svg">
<path d="M12.6201 0.415514C13.1998 0.690088 13.4472 1.38263 13.1726 1.96235L10.1897 8.2604L16.4877 11.2434C17.0674 11.5179 17.3148 12.2105 17.0402 12.7902C16.7657 13.3699 16.0731 13.6173 15.4934 13.3427L9.19534 10.3597L6.21238 16.6578C5.93781 17.2375 5.24527 17.4849 4.66555 17.2103C4.08583 16.9357 3.83846 16.2432 4.11304 15.6635L7.09599 9.36543L0.797948 6.38247C0.218229 6.10789 -0.0291403 5.41535 0.245434 4.83563C0.520008 4.25591 1.21255 4.00855 1.79227 4.28312L8.09032 7.26608L11.0733 0.968028C11.3479 0.388309 12.0404 0.14094 12.6201 0.415514Z" fill="#E7E7E7"/>
</svg>
