<svg width="19" height="20" viewBox="0 0 19 20" fill="none" xmlns="http://www.w3.org/2000/svg">
<path d="M9.42561 0.511963C10.0671 0.511963 10.5871 1.03197 10.5871 1.67342V8.64217H17.5558C18.1973 8.64217 18.7173 9.16218 18.7173 9.80363C18.7173 10.4451 18.1973 10.9651 17.5558 10.9651H10.5871V17.9338C10.5871 18.5753 10.0671 19.0953 9.42561 19.0953C8.78415 19.0953 8.26415 18.5753 8.26415 17.9338V10.9651H1.2954C0.653944 10.9651 0.133942 10.4451 0.133942 9.80363C0.133942 9.16218 0.653944 8.64217 1.2954 8.64217H8.26415V1.67342C8.26415 1.03197 8.78415 0.511963 9.42561 0.511963Z" fill="#E7E7E7"/>
</svg>
