<svg width="22" height="22" viewBox="0 0 22 22" fill="none" xmlns="http://www.w3.org/2000/svg">
<path d="M8.43746 12.04C7.85341 12.3321 7.36671 12.7657 7.00389 13.3055C6.80036 13.6152 6.80036 14.0046 7.00389 14.3143C7.36671 14.8541 7.85341 15.2877 8.43746 15.5797" stroke="#5454D4" stroke-width="1.32738" stroke-linecap="round" stroke-linejoin="round"/>
<path d="M13.9328 12.04C14.5169 12.3321 15.0036 12.7657 15.3664 13.3055C15.5699 13.6152 15.5699 14.0046 15.3664 14.3143C15.0036 14.8541 14.5169 15.2877 13.9328 15.5797" stroke="#5454D4" stroke-width="1.32738" stroke-linecap="round" stroke-linejoin="round"/>
<path d="M8.43749 20.0043H13.747C18.1716 20.0043 19.9415 18.2345 19.9415 13.8099V8.50035C19.9415 4.07575 18.1716 2.30591 13.747 2.30591H8.43749C4.01288 2.30591 2.24304 4.07575 2.24304 8.50035V13.8099C2.24304 18.2345 4.01288 20.0043 8.43749 20.0043Z" stroke="#5454D4" stroke-width="1.32738" stroke-linecap="round" stroke-linejoin="round"/>
<path d="M2.44656 7.62433L19.4547 7.61548" stroke="#5454D4" stroke-width="1.32738" stroke-linecap="round" stroke-linejoin="round"/>
</svg>
