<svg width="23" height="22" viewBox="0 0 23 22" fill="none" xmlns="http://www.w3.org/2000/svg">
<path d="M8.8661 12.04C8.28205 12.3321 7.79534 12.7657 7.43253 13.3055C7.22899 13.6152 7.22899 14.0046 7.43253 14.3143C7.79534 14.8541 8.28205 15.2877 8.8661 15.5797" stroke="#FEDC5A" stroke-width="1.32738" stroke-linecap="round" stroke-linejoin="round"/>
<path d="M14.3614 12.04C14.9455 12.3321 15.4322 12.7657 15.795 13.3055C15.9985 13.6152 15.9985 14.0046 15.795 14.3143C15.4322 14.8541 14.9455 15.2877 14.3614 15.5797" stroke="#FEDC5A" stroke-width="1.32738" stroke-linecap="round" stroke-linejoin="round"/>
<path d="M8.86607 20.0043H14.1756C18.6002 20.0043 20.37 18.2345 20.37 13.8099V8.50035C20.37 4.07575 18.6002 2.30591 14.1756 2.30591H8.86607C4.44147 2.30591 2.67163 4.07575 2.67163 8.50035V13.8099C2.67163 18.2345 4.44147 20.0043 8.86607 20.0043Z" stroke="#FEDC5A" stroke-width="1.32738" stroke-linecap="round" stroke-linejoin="round"/>
<path d="M2.87515 7.62433L19.8833 7.61548" stroke="#FEDC5A" stroke-width="1.32738" stroke-linecap="round" stroke-linejoin="round"/>
</svg>
