<svg width="22" height="22" viewBox="0 0 22 22" fill="none" xmlns="http://www.w3.org/2000/svg">
<path d="M15.8708 17.6064H6.31369C4.9863 17.6064 4.45535 17.0401 4.45535 15.6331V14.7128C4.45535 13.3057 4.9863 12.7394 6.31369 12.7394H15.8708C17.1982 12.7394 17.7292 13.3057 17.7292 14.7128V15.6331C17.7292 17.0401 17.1982 17.6064 15.8708 17.6064Z" stroke="#FEDC5A" stroke-width="1.32738" stroke-linecap="round" stroke-linejoin="round"/>
<path d="M14.101 10.0847H8.08352C6.75614 10.0847 6.22519 9.51837 6.22519 8.11134V7.19102C6.22519 5.784 6.75614 5.21765 8.08352 5.21765H14.101C15.4284 5.21765 15.9593 5.784 15.9593 7.19102V8.11134C15.9593 9.51837 15.4284 10.0847 14.101 10.0847Z" stroke="#FEDC5A" stroke-width="1.32738" stroke-linecap="round" stroke-linejoin="round"/>
<path d="M11.0923 20.0402V17.9164" stroke="#FEDC5A" stroke-width="1.32738" stroke-linecap="round" stroke-linejoin="round"/>
<path d="M11.0923 12.0757V10.3059" stroke="#FEDC5A" stroke-width="1.32738" stroke-linecap="round" stroke-linejoin="round"/>
<path d="M11.0923 2.34167V4.72211" stroke="#292D32" stroke-width="1.32738" stroke-linecap="round" stroke-linejoin="round"/>
</svg>
