<svg width="22" height="22" viewBox="0 0 22 22" fill="none" xmlns="http://www.w3.org/2000/svg">
<path d="M6.66953 20.0401H15.9435C18.3859 20.0401 19.3593 18.5446 19.4743 16.7216L19.9345 9.41219C20.0584 7.50076 18.5363 5.88136 16.616 5.88136C16.0762 5.88136 15.5807 5.57163 15.3329 5.09378L14.6958 3.81064C14.2887 3.00537 13.2268 2.34167 12.3242 2.34167H10.2977C9.38623 2.34167 8.32433 3.00537 7.91727 3.81064L7.28012 5.09378C7.03234 5.57163 6.53679 5.88136 5.99699 5.88136C4.07671 5.88136 2.55465 7.50076 2.67854 9.41219L3.13869 16.7216C3.24489 18.5446 4.22715 20.0401 6.66953 20.0401Z" stroke="#5454D4" stroke-width="1.32738" stroke-linecap="round" stroke-linejoin="round"/>
<path d="M9.97914 7.65125H12.6339" stroke="#5454D4" stroke-width="1.32738" stroke-linecap="round" stroke-linejoin="round"/>
<path d="M11.3065 16.5003C12.8905 16.5003 14.1825 15.2083 14.1825 13.6243C14.1825 12.0403 12.8905 10.7483 11.3065 10.7483C9.7225 10.7483 8.43052 12.0403 8.43052 13.6243C8.43052 15.2083 9.7225 16.5003 11.3065 16.5003Z" stroke="#5454D4" stroke-width="1.32738" stroke-linecap="round" stroke-linejoin="round"/>
</svg>
