<svg width="22" height="22" viewBox="0 0 22 22" fill="none" xmlns="http://www.w3.org/2000/svg">
<path d="M12.2003 3.12013L17.4213 5.43862C18.9257 6.10231 18.9257 7.19961 17.4213 7.8633L12.2003 10.1818C11.6074 10.4473 10.634 10.4473 10.0411 10.1818L4.82008 7.8633C3.31571 7.19961 3.31571 6.10231 4.82008 5.43862L10.0411 3.12013C10.634 2.85465 11.6074 2.85465 12.2003 3.12013Z" stroke="#F04037" stroke-width="1.32738" stroke-linecap="round" stroke-linejoin="round"/>
<path d="M3.34223 10.2703C3.34223 11.0136 3.89973 11.872 4.58112 12.1728L10.5897 14.8453C11.0499 15.0488 11.572 15.0488 12.0233 14.8453L18.0319 12.1728C18.7133 11.872 19.2708 11.0136 19.2708 10.2703" stroke="#F04037" stroke-width="1.32738" stroke-linecap="round" stroke-linejoin="round"/>
<path d="M3.34223 14.6948C3.34223 15.5178 3.82894 16.2611 4.58112 16.5974L10.5897 19.2699C11.0499 19.4734 11.572 19.4734 12.0233 19.2699L18.0319 16.5974C18.7841 16.2611 19.2708 15.5178 19.2708 14.6948" stroke="#F04037" stroke-width="1.32738" stroke-linecap="round" stroke-linejoin="round"/>
</svg>
