<svg width="23" height="22" viewBox="0 0 23 22" fill="none" xmlns="http://www.w3.org/2000/svg">
<path d="M20.37 13.8456V8.53612C20.37 4.11152 18.6002 2.34167 14.1756 2.34167H8.86607C4.44147 2.34167 2.67163 4.11152 2.67163 8.53612V13.8456C2.67163 18.2702 4.44147 20.0401 8.86607 20.0401H14.1756C18.6002 20.0401 20.37 18.2702 20.37 13.8456Z" stroke="#F04037" stroke-width="1.32738" stroke-linecap="round" stroke-linejoin="round"/>
<path d="M3.13181 6.86365H19.9099" stroke="#F04037" stroke-width="1.32738" stroke-linecap="round" stroke-linejoin="round"/>
<path d="M8.44135 2.43909V6.7398" stroke="#F04037" stroke-width="1.32738" stroke-linecap="round" stroke-linejoin="round"/>
<path d="M14.6003 2.43909V6.34159" stroke="#F04037" stroke-width="1.32738" stroke-linecap="round" stroke-linejoin="round"/>
<path d="M9.52975 13.3591V12.2972C9.52975 10.9344 10.4943 10.3769 11.6713 11.0583L12.5916 11.5892L13.5119 12.1202C14.6888 12.8016 14.6888 13.9166 13.5119 14.598L12.5916 15.1289L11.6713 15.6599C10.4943 16.3412 9.52975 15.7837 9.52975 14.421V13.3591V13.3591Z" stroke="#F04037" stroke-width="1.32738" stroke-miterlimit="10" stroke-linecap="round" stroke-linejoin="round"/>
</svg>
